# xmcd CD database file
#
# Track frame offsets:
#	150
#	19220
#	38335
#	51095
#	70165
#	100605
#
# Disc length: 4440 seconds
#
# Revision: 2
# Processed by: cddbd v1.5.1PL0 Copyright (c) Steve Scherf et al.
# Submitted via: CDex 1.51
#
DISCID=3f115606
DTITLE=大塚 愛 - 甘えんぼ
DYEAR=2004
DGENRE=Pop
TTITLE0=甘えんぼ
TTITLE1=雨色パラソル
TTITLE2=さくらんぼ（スタジオライブver）
TTITLE3=甘えんぼ　Instrumental
TTITLE4=雨色パラソル　Instrumental
TTITLE5=CCCD
EXTD=YEAR: 2004
EXTT0=
EXTT1=
EXTT2=
EXTT3=
EXTT4=
EXTT5=
PLAYORDER=
